<svg version="1.1" xmlns="http://www.w3.org/2000/svg" xmlns:xlink="http://www.w3.org/1999/xlink" viewBox="0 0 100 100" enable-background="new 0 0 100 100" xml:space="preserve" fill="#40bf66"><g id="SVGRepo_bgCarrier" stroke-width="0"></g><g id="SVGRepo_tracerCarrier" stroke-linecap="round" stroke-linejoin="round"></g><g id="SVGRepo_iconCarrier"> <g id="Download_x5F_25_x25_"> </g> <g id="Download_x5F_50_x25_"> </g> <g id="Download_x5F_75_x25_"> </g> <g id="Download_x5F_100_x25_"> </g> <g id="Upload"> </g> <g id="Next"> </g> <g id="Last"> </g> <g id="OK"> </g> <g id="Fail"> </g> <g id="Add"> </g> <g id="Spinner_x5F_0_x25_"> </g> <g id="Spinner_x5F_25_x25_"> </g> <g id="Spinner_x5F_50_x25_"> </g> <g id="Spinner_x5F_75_x25_"> </g> <g id="Brightest_x5F_25_x25_"> </g> <g id="Brightest_x5F_50_x25_"> </g> <g id="Brightest_x5F_75_x25_"> </g> <g id="Brightest_x5F_100_x25_"> </g> <g id="Reload"> </g> <g id="Forbidden"> </g> <g id="Clock"> </g> <g id="Compass"> <circle fill="none" stroke="#40bf66" stroke-width="4" stroke-linecap="round" stroke-linejoin="round" stroke-miterlimit="10" cx="50.188" cy="50" r="23.188"></circle> <path d="M27.133,50.498c-0.359-1.489,0.949-2.796,2.438-2.438c0.7,0.169,1.274,0.743,1.442,1.442 c0.359,1.489-0.949,2.796-2.438,2.438C27.876,51.771,27.302,51.197,27.133,50.498z"></path> <path d="M69.485,50.498c-0.359-1.489,0.949-2.796,2.438-2.438c0.7,0.169,1.274,0.743,1.442,1.442 c0.359,1.489-0.949,2.796-2.438,2.438C70.227,51.771,69.653,51.197,69.485,50.498z"></path> <path d="M50.747,73.116c-1.489,0.359-2.796-0.949-2.438-2.438c0.169-0.7,0.743-1.274,1.442-1.442 c1.489-0.359,2.796,0.949,2.438,2.438C52.02,72.373,51.446,72.947,50.747,73.116z"></path> <path d="M50.747,30.764c-1.489,0.359-2.796-0.949-2.438-2.438c0.169-0.7,0.743-1.274,1.442-1.442 c1.489-0.359,2.796,0.949,2.438,2.438C52.02,30.022,51.446,30.596,50.747,30.764z"></path> <path fill="none" stroke="#40bf66" stroke-width="4" stroke-miterlimit="10" d="M45.646,50l4.448-15.155 c0.032-0.088,0.156-0.088,0.188,0L54.729,50l-4.448,15.155c-0.032,0.088-0.156,0.088-0.188,0L45.646,50z"></path> <path d="M45.646,50l4.448-15.155c0.032-0.088,0.156-0.088,0.188,0L54.729,50H45.646z"></path> </g> <g id="World"> </g> <g id="Speed"> </g> <g id="Microphone"> </g> <g id="Options"> </g> <g id="Chronometer"> </g> <g id="Lock"> </g> <g id="User"> </g> <g id="Position"> </g> <g id="No_x5F_Signal"> </g> <g id="Low_x5F_Signal"> </g> <g id="Mid_x5F_Signal"> </g> <g id="High_x5F_Signal"> </g> <g id="Options_1_"> </g> <g id="Flash"> </g> <g id="No_x5F_Signal_x5F_02"> </g> <g id="Low_x5F_Signal_x5F_02"> </g> <g id="Mid_x5F_Signal_x5F_02"> </g> <g id="High_x5F_Signal_x5F_02"> </g> <g id="Favorite"> </g> <g id="Search"> </g> <g id="Stats_x5F_01"> </g> <g id="Stats_x5F_02"> </g> <g id="Turn_x5F_On_x5F_Off"> </g> <g id="Full_x5F_Height"> </g> <g id="Full_x5F_Width"> </g> <g id="Full_x5F_Screen"> </g> <g id="Compress_x5F_Screen"> </g> <g id="Chat"> </g> <g id="Bluetooth"> </g> <g id="Share_x5F_iOS"> </g> <g id="Share_x5F_Android"> </g> <g id="Love__x2F__Favorite"> </g> <g id="Hamburguer"> </g> <g id="Flying"> </g> <g id="Take_x5F_Off"> </g> <g id="Land"> </g> <g id="City"> </g> <g id="Nature"> </g> <g id="Pointer"> </g> <g id="Prize"> </g> <g id="Extract"> </g> <g id="Play"> </g> <g id="Pause"> </g> <g id="Stop"> </g> <g id="Forward"> </g> <g id="Reverse"> </g> <g id="Next_1_"> </g> <g id="Last_1_"> </g> <g id="Empty_x5F_Basket"> </g> <g id="Add_x5F_Basket"> </g> <g id="Delete_x5F_Basket"> </g> <g id="Error_x5F_Basket"> </g> <g id="OK_x5F_Basket"> </g> </g></svg>